<svg id="Layer_1" data-name="Layer 1" xmlns="http://www.w3.org/2000/svg" xmlns:xlink="http://www.w3.org/1999/xlink" viewBox="0 0 763.69 571.25"><defs><style>.cls-1{fill:url(#linear-gradient);}.cls-2{fill:url(#linear-gradient-2);}.cls-3{fill:url(#linear-gradient-3);}.cls-4{fill:#878787;}.cls-5{fill:#fff;}</style><linearGradient id="linear-gradient" y1="440.6" x2="586.19" y2="440.6" gradientUnits="userSpaceOnUse"><stop offset="0" stop-color="#47cff8"/><stop offset="0.17" stop-color="#46ccf5"/><stop offset="0.3" stop-color="#43c4eb"/><stop offset="0.42" stop-color="#3eb6da"/><stop offset="0.53" stop-color="#38a2c2"/><stop offset="0.64" stop-color="#2f89a4"/><stop offset="0.75" stop-color="#24697e"/><stop offset="0.85" stop-color="#174452"/><stop offset="0.95" stop-color="#091a20"/><stop offset="1"/></linearGradient><linearGradient id="linear-gradient-2" x1="130.8" y1="-17.75" x2="130.8" y2="623.87" xlink:href="#linear-gradient"/><linearGradient id="linear-gradient-3" x1="469.86" y1="72.19" x2="-161.94" y2="72.19" gradientUnits="userSpaceOnUse"><stop offset="0" stop-color="#0098a3"/><stop offset="0.13" stop-color="#00939e"/><stop offset="0.29" stop-color="#00858e"/><stop offset="0.47" stop-color="#006d75"/><stop offset="0.66" stop-color="#004c51"/><stop offset="0.86" stop-color="#002224"/><stop offset="1"/></linearGradient></defs><path class="cls-1" d="M335.59,426.48a26.26,26.26,0,0,1,3.44.22c122.86,16.89,108.51,144.52,108.51,144.52H156.42c-6,0-12,.07-18,0-9.54-.12-18.7-.5-28-2.62a163.93,163.93,0,0,1-21.15-6.26,139.82,139.82,0,0,1-33.79-18A129.7,129.7,0,0,1,31.54,521.7a137,137,0,0,1-15.68-24,148.51,148.51,0,0,1-9.19-22.09C-3.46,444.36,1,407.7,1,375.12v-65a.17.17,0,0,1,.34-.05C43,433.56,144.48,426,145.42,426.48"/><path class="cls-2" d="M261,.34a.17.17,0,0,0,0-.34H127C112,0,95.72,5.36,82.11,11.21A133.14,133.14,0,0,0,11.72,82.44C-3,117.46,1,156.24,1,193.43V311.76S33.45,432.08,145.42,426.48V144.28S140.35,36.54,261,.34Z"/><path class="cls-3" d="M447,0c.79,0,.39,19.57.33,20.69a165.79,165.79,0,0,1-8.71,46.84c-6.56,18.85-17.31,36.24-32.44,49.41-20.31,17.69-48.68,27.55-76,27.45-21.94-.08-44.13-.11-66.08-.11H145.42S139.22,39.42,258.39,0Z"/><path class="cls-4" d="M281.34,331.49l-13.3-.11q-12-.11-30.75-.1-12.3,0-23.39.1t-18.77.11q.21-18.09.37-36.64t.16-36.43q0-29.85-.21-45.52t-.32-22h17.35q-.21,13.55-.32,31.3t-.1,29.1q0,27.61.1,46.11t.11,19.54q4.3,0,10.41,0c4.06,0,7.74.05,11,.05q18.82,0,32.75-.16l14.88-.15Z"/><path class="cls-4" d="M388.63,278.5a63.43,63.43,0,0,1-4.36,23.34,52.63,52.63,0,0,1-12.56,19A49.34,49.34,0,0,1,356.31,331a50.3,50.3,0,0,1-19.19,3.47A51.93,51.93,0,0,1,318.2,331a47.15,47.15,0,0,1-15.77-10,51.53,51.53,0,0,1-12.35-18.92,65.11,65.11,0,0,1-4.37-23.76,64,64,0,0,1,3.73-22.24,51.4,51.4,0,0,1,11.62-18.24,48.72,48.72,0,0,1,16.4-11.3,50.38,50.38,0,0,1,19.77-3.94A51.93,51.93,0,0,1,357,226.2a45.37,45.37,0,0,1,15.82,10.88,54.19,54.19,0,0,1,11.88,18.66A64.08,64.08,0,0,1,388.63,278.5Zm-16.82.74a59.11,59.11,0,0,0-3.2-19.24,38.68,38.68,0,0,0-9.94-15.77,28,28,0,0,0-9.72-6.15,32.43,32.43,0,0,0-11.72-2.16,31.73,31.73,0,0,0-12.62,2.31,31.33,31.33,0,0,0-10.09,7.26A39.61,39.61,0,0,0,305.74,260a53.08,53.08,0,0,0-3.21,18.29A57.48,57.48,0,0,0,305.79,298a38,38,0,0,0,10.52,15.51,28.46,28.46,0,0,0,9.46,5.62,32.94,32.94,0,0,0,11.35,1.95,32.51,32.51,0,0,0,12.35-2.32,29.07,29.07,0,0,0,10-6.72,40.5,40.5,0,0,0,9.15-14.72A52.3,52.3,0,0,0,371.81,279.24Z"/><path class="cls-4" d="M487.31,224.36q0,2.31-.16,20.81T487,280.39q0,11.36.1,23.13t.11,21.55q0,18-6.15,28.18a44.43,44.43,0,0,1-17.51,16.29,85.39,85.39,0,0,1-21.76,7.31q-12.82,2.68-31.12,2.68L409,366.18q12.3-.21,22.08-1.32a75.86,75.86,0,0,0,17.76-4q12.3-4.63,17.14-12.25T471,330h-5a117.05,117.05,0,0,1-25.76-3,63.68,63.68,0,0,1-22.6-9.52,48.18,48.18,0,0,1-15-16.19q-5.79-10-5.79-24.7a43.3,43.3,0,0,1,8.1-26,56.67,56.67,0,0,1,21.65-17.87,74.45,74.45,0,0,1,21.08-6.57,176.29,176.29,0,0,1,27.6-1.84h12.09Zm-16.08,55.87q0-7.56-.06-18.9t-.26-23.62h-2.73A101.76,101.76,0,0,0,451.09,239a69.28,69.28,0,0,0-15.4,4.72,35.45,35.45,0,0,0-16.4,13.55,36.8,36.8,0,0,0-5.68,20.16q0,11.55,5.63,19.73a37.44,37.44,0,0,0,15.08,12.71,70.73,70.73,0,0,0,14.88,4.93,82.09,82.09,0,0,0,17.93,1.89H471q0-1.26.1-11.7T471.23,280.23Z"/><path class="cls-4" d="M584.83,318l-1.26,14.09h-5.78a118.3,118.3,0,0,1-25.34-2.58,80.69,80.69,0,0,1-21.13-7.62,52.49,52.49,0,0,1-19.87-18.4A47.24,47.24,0,0,1,504.3,278a43.28,43.28,0,0,1,6.52-23.18,53.87,53.87,0,0,1,17-17.29,73.63,73.63,0,0,1,22.65-9.31,115.56,115.56,0,0,1,27.29-3.2h4.31l.84,14.09h-3.26a120.37,120.37,0,0,0-19.92,1.41,74,74,0,0,0-16,4.68,35.46,35.46,0,0,0-16.5,13.25,34,34,0,0,0-6.1,19.34q0,12.3,5.73,20.66A37.77,37.77,0,0,0,542,311.3a61.57,61.57,0,0,0,16.61,5.15A116.52,116.52,0,0,0,578.21,318h6.62Z"/><path class="cls-4" d="M674.78,271.77q0,26.07-.1,42.47c-.08,10.94-.11,16.82-.11,17.67q-1.05.1-9.78.78t-22.5.69A97.42,97.42,0,0,1,625,331.8a61.61,61.61,0,0,1-15-4.52,35.88,35.88,0,0,1-13.61-10.62,25.65,25.65,0,0,1-5.2-16.19,26,26,0,0,1,6.15-17.29q6.15-7.31,17.08-11.83a99.67,99.67,0,0,1,18.24-5.1,230.67,230.67,0,0,1,26-3.42q-.63-8.19-4.1-13.45a21.45,21.45,0,0,0-10.2-8,42.43,42.43,0,0,0-10.3-2.68,96.87,96.87,0,0,0-13.25-.79q-4.72,0-8,.21c-2.21.14-5.2.31-9,.52l1.68-14,6.26-.37q4.68-.26,12.77-.26a86.49,86.49,0,0,1,22.13,2.58A38.25,38.25,0,0,1,662.69,235a34.4,34.4,0,0,1,9,13.5Q674.78,256.53,674.78,271.77ZM658.7,297.11v-9q0-5.47-.11-12.62-4.62.21-16.19,1.84A89.4,89.4,0,0,0,623,282a30.24,30.24,0,0,0-10.46,6.62,14.6,14.6,0,0,0-4.57,10.94q0,7.14,3.89,11.51a24.49,24.49,0,0,0,10.62,6.67,55.83,55.83,0,0,0,11.4,2.58,106.69,106.69,0,0,0,13.2.79c1.4,0,3.11,0,5.15-.11l6.41-.21q0-.74,0-6.94T658.7,297.11Z"/><path class="cls-4" d="M759.37,318.66,757.48,332c-.5.07-1.7.14-3.63.21s-3.59.11-5,.11q-21.55,0-32.59-9t-11-27.6q0-11.67.15-25t.16-33.12H687.88V225.3h18.61V200.39h15.24V225.3h37.64v12.3H721.73q0,2.22-.16,13.14t-.15,16.2V293q0,13.67,7.36,19.71t22.7,6c1.27,0,2.77,0,4.52-.05Z"/><path class="cls-5" d="M285.64,331.48l-13.29-.1q-12-.11-30.76-.11-12.3,0-23.39.11t-18.76.1q.21-18.08.36-36.63t.16-36.43q0-29.87-.21-45.52t-.31-22h17.34q-.21,13.56-.31,31.31t-.11,29.09q0,27.63.11,46.12t.1,19.54c2.88,0,6.35,0,10.41,0s7.75.05,11,.05q18.81,0,32.75-.16l14.87-.15Z"/><path class="cls-5" d="M392.94,278.5a63.43,63.43,0,0,1-4.36,23.34,52.76,52.76,0,0,1-12.56,19A49.38,49.38,0,0,1,360.61,331a50.21,50.21,0,0,1-19.18,3.47A52,52,0,0,1,322.5,331a47.5,47.5,0,0,1-15.77-10,51.78,51.78,0,0,1-12.35-18.92A65.1,65.1,0,0,1,290,278.29a64,64,0,0,1,3.73-22.24,51.4,51.4,0,0,1,11.62-18.24,48.62,48.62,0,0,1,16.4-11.3,50.3,50.3,0,0,1,19.76-3.94,52,52,0,0,1,19.82,3.63,45.37,45.37,0,0,1,15.82,10.88,54,54,0,0,1,11.88,18.66A64.31,64.31,0,0,1,392.94,278.5Zm-16.82.73A58.84,58.84,0,0,0,372.91,260,38.77,38.77,0,0,0,363,244.23a28,28,0,0,0-9.73-6.15,32.39,32.39,0,0,0-11.72-2.16,31.68,31.68,0,0,0-12.61,2.31,31.21,31.21,0,0,0-10.1,7.26A39.6,39.6,0,0,0,310.05,260a53.08,53.08,0,0,0-3.21,18.29A57.24,57.24,0,0,0,310.1,298a38,38,0,0,0,10.51,15.51,28.73,28.73,0,0,0,9.46,5.62,33,33,0,0,0,11.36,1.95,32.54,32.54,0,0,0,12.35-2.32,29,29,0,0,0,10-6.73A40.73,40.73,0,0,0,373,297.32,52.32,52.32,0,0,0,376.12,279.23Z"/><path class="cls-5" d="M491.62,224.36q0,2.31-.16,20.81t-.16,35.22q0,11.36.11,23.13t.1,21.55q0,18-6.15,28.18a44.47,44.47,0,0,1-17.5,16.29,85.78,85.78,0,0,1-21.76,7.31q-12.84,2.68-31.12,2.68l-1.69-13.35q12.31-.21,22.08-1.32a75.83,75.83,0,0,0,17.77-4q12.3-4.63,17.14-12.25t5-18.56h-5a117,117,0,0,1-25.76-3,63.61,63.61,0,0,1-22.6-9.52,48.31,48.31,0,0,1-15-16.19q-5.78-10-5.78-24.7a43.34,43.34,0,0,1,8.09-26,56.78,56.78,0,0,1,21.66-17.87,74.45,74.45,0,0,1,21.08-6.57,176.11,176.11,0,0,1,27.6-1.84h12.09Zm-16.09,55.87q0-7.56,0-18.9t-.26-23.62h-2.74A101.71,101.71,0,0,0,455.4,239a69.12,69.12,0,0,0-15.4,4.72,35.4,35.4,0,0,0-16.4,13.55,36.71,36.71,0,0,0-5.68,20.15q0,11.55,5.62,19.74a37.48,37.48,0,0,0,15.09,12.71,70.73,70.73,0,0,0,14.88,4.93,82,82,0,0,0,17.92,1.89h3.89q0-1.26.11-11.71T475.53,280.23Z"/><path class="cls-5" d="M589.14,318l-1.27,14.08h-5.78a118.23,118.23,0,0,1-25.33-2.57,80.89,80.89,0,0,1-21.14-7.62,52.56,52.56,0,0,1-19.87-18.4A47.35,47.35,0,0,1,508.61,278a43.36,43.36,0,0,1,6.51-23.18,53.9,53.9,0,0,1,17-17.29,73.42,73.42,0,0,1,22.65-9.31,115.53,115.53,0,0,1,27.28-3.2h4.31l.84,14.08H584a120.39,120.39,0,0,0-19.93,1.42,74.13,74.13,0,0,0-16,4.68,35.41,35.41,0,0,0-16.5,13.25,33.93,33.93,0,0,0-6.1,19.34q0,12.3,5.73,20.66a37.77,37.77,0,0,0,15.19,12.88A61.46,61.46,0,0,0,563,316.45,116.4,116.4,0,0,0,582.51,318h6.63Z"/><path class="cls-5" d="M679.09,271.77q0,26.07-.11,42.47t-.1,17.66c-.7.07-4,.34-9.78.79s-13.32.69-22.5.69a97.53,97.53,0,0,1-17.35-1.58,61.66,61.66,0,0,1-15-4.52,35.81,35.81,0,0,1-13.61-10.62,25.66,25.66,0,0,1-5.21-16.19,26,26,0,0,1,6.15-17.29q6.15-7.31,17.09-11.83a99.44,99.44,0,0,1,18.24-5.1,228.09,228.09,0,0,1,26-3.42q-.63-8.19-4.1-13.45a21.49,21.49,0,0,0-10.2-8,42.55,42.55,0,0,0-10.3-2.68,96.87,96.87,0,0,0-13.25-.79c-3.15,0-5.84.07-8,.21s-5.21.31-9,.52l1.68-14,6.26-.37q4.66-.26,12.77-.26a86.49,86.49,0,0,1,22.13,2.58A38.29,38.29,0,0,1,667,235a34.73,34.73,0,0,1,9,13.51Q679.09,256.52,679.09,271.77ZM663,297.11v-9.05q0-5.46-.1-12.61-4.64.21-16.19,1.84A89.26,89.26,0,0,0,627.26,282a30.14,30.14,0,0,0-10.46,6.62,14.59,14.59,0,0,0-4.58,10.93q0,7.16,3.89,11.52a24.61,24.61,0,0,0,10.62,6.67,56.76,56.76,0,0,0,11.41,2.58,106.64,106.64,0,0,0,13.19.79c1.4,0,3.12,0,5.15-.11l6.42-.21c0-.49,0-2.8.05-6.94S663,304.11,663,297.11Z"/><path class="cls-5" d="M763.68,318.66,761.78,332c-.49.07-1.7.14-3.62.21s-3.6.1-5,.1q-21.55,0-32.59-9t-11-27.6q0-11.67.16-25t.16-33.12H692.19V225.3h18.6V200.39H726V225.3h37.64v12.3H726c0,1.47,0,5.86-.16,13.14s-.16,12.69-.16,16.19V293q0,13.67,7.36,19.71t22.71,6c1.26,0,2.77,0,4.52-.05Z"/></svg>