<svg id="Layer_5" data-name="Layer 5" xmlns="http://www.w3.org/2000/svg" viewBox="0 0 144.63 150.89"><defs><style>.cls-1{fill:#0de0fc;}</style></defs><path class="cls-1" d="M255.16,607.49c-1.44-1.41-2.87-2.84-4.35-4.2-.22-.2-.7-.15-1.07-.15-9.93,0-19.86,0-29.79,0a1.68,1.68,0,0,0-1.9,1.23,8.52,8.52,0,0,1-8.53,5.33c-4.69-.56-7.35-3.53-8-8-.62-4.05,2.7-8.25,6.56-9.21a8.67,8.67,0,0,1,9.84,4.79,2.38,2.38,0,0,0,2.62,1.66c10.09,0,20.19,0,30.28-.05a3.87,3.87,0,0,1,3.05,1.31c1.85,2,3.86,3.77,5.63,5.78a5.24,5.24,0,0,0,5,2c1.24-.16,2.55.12,3.79-.06,4.77-.7,8.68.56,11.46,4.67a3.75,3.75,0,0,0,.45.44l11.19,11L288.66,628c-.5-.46-.9-.8-1.26-1.17l-12.77-12.77c-1.65-1.65-5.68-2.3-8.21-1.12l19,18.58a41,41,0,0,1-7.95,7c-1.09.8-1.71.72-2.64-.23-5.06-5.16-10.21-10.24-15.3-15.37a3.52,3.52,0,0,0-2.78-1.17c-3.17.07-6.34.05-9.51,0a1.83,1.83,0,0,0-1.91,1,4.52,4.52,0,0,1-3.94,2.51,4.87,4.87,0,0,1-4.76-3.87,4.69,4.69,0,0,1,2.88-5.1,4.54,4.54,0,0,1,5.66,1.85,2.32,2.32,0,0,0,2.48,1.39,61.57,61.57,0,0,0,6.8-.08c3.52-.49,5.82,1.07,8,3.52,2.82,3.14,5.91,6,8.94,9,.36.35,1.23.66,1.54.47,1.38-.84,2.64-1.87,4-2.86a7.23,7.23,0,0,0-.59-.86q-7.87-7.9-15.79-15.79a2.42,2.42,0,0,0-1.56-.49c-8.45,0-16.91,0-25.36-.05a4,4,0,0,0-3.16,1.36c-2.19,2.29-4.42,4.55-6.74,6.71a4,4,0,0,1-2.45,1c-7,.08-14,.1-21.08,0-1.76,0-3.05.19-3.54,2.1a3.57,3.57,0,0,1-.77,1.19,8.91,8.91,0,0,1-15.81-6.55,9,9,0,0,1,7.77-7.86,8.77,8.77,0,0,1,9,5,2.31,2.31,0,0,0,2.6,1.59q9.9-.11,19.81,0a3.47,3.47,0,0,0,2.76-1.19c2.2-2.28,4.5-4.46,6.69-6.75a3.34,3.34,0,0,1,2.63-1.1c7.29,0,14.58,0,21.87,0h1.65Zm-13.79,15.76a2.76,2.76,0,0,0,2.44-2.66,2.57,2.57,0,1,0-5.13.08A2.77,2.77,0,0,0,241.37,623.25Z" transform="translate(-146.69 -522.29)"/><path class="cls-1" d="M281.21,598c-.95-.88-1.52-1.36-2-1.89-3.23-3.23-6.41-6.5-9.71-9.66a4.1,4.1,0,0,0-2.53-1.05c-4.31-.1-8.62,0-12.92-.1a5.45,5.45,0,0,1-3.22-1.3c-3-2.74-5.69-5.75-8.66-8.49a5.25,5.25,0,0,0-3.22-1.29c-8.75-.1-17.49-.08-26.24,0a4.46,4.46,0,0,1-3.6-1.47c-2.73-2.89-5.55-5.71-8.46-8.42a4.63,4.63,0,0,0-2.85-1.18q-13.71-.12-27.41,0a2.45,2.45,0,0,1-2.7-1.79,11,11,0,0,0-20.95,4.56,11,11,0,0,0,8.65,10.68,10.86,10.86,0,0,0,12.35-6.36,2.09,2.09,0,0,1,2.29-1.52c8.55.05,17.1,0,25.65.07a4.44,4.44,0,0,1,2.68,1.15c2.94,2.78,5.69,5.75,8.66,8.49a5.24,5.24,0,0,0,3.22,1.28c8.81.1,17.62.08,26.43,0a4.1,4.1,0,0,1,3.26,1.34c2.76,2.87,5.65,5.6,8.4,8.49a4.24,4.24,0,0,0,3.44,1.39c4.11-.08,8.22,0,12.33-.07a4.28,4.28,0,0,1,3.4,1.46c6.14,6.22,12.33,12.4,18.5,18.58.18.18.38.34.72.64a6.74,6.74,0,0,0,.74-1.34c1.33-4.82,2.67-9.64,3.88-14.49a2.63,2.63,0,0,0-.75-2q-12-12.16-24.2-24.22a3.62,3.62,0,0,0-2-.8,26.41,26.41,0,0,0-3.33,0c-2.21,0-4.13.25-5.68-2.36-1.77-3-6.32-2.77-8.75-.24a6.09,6.09,0,0,0,.51,8.73,5.93,5.93,0,0,0,8.86-1.45c.88-1.59,2-1.57,3.42-1.75,3.48-.42,6,.81,8.32,3.39,4.23,4.62,8.77,8.94,13.25,13.32a3.5,3.5,0,0,1,1.16,3.31C281.76,593.54,281.53,595.52,281.21,598Z" transform="translate(-146.69 -522.29)"/><path class="cls-1" d="M291.32,531.44a3.21,3.21,0,0,1-.4.61c-7.08,7.08-14.14,14.18-21.3,21.17a4.9,4.9,0,0,1-3.11,1.07c-4.88.11-9.77.13-14.65,0-2.33-.06-3.93.36-5.25,2.63a6.83,6.83,0,0,1-8.93,2.5,7.33,7.33,0,0,1-3.89-8.73,6.88,6.88,0,0,1,5.35-5,7,7,0,0,1,8,3.6,3.23,3.23,0,0,0,3.33,1.87c5-.09,9.94,0,14.91-.06a3.62,3.62,0,0,0,2.29-.59c4-3.84,7.83-7.79,11.87-11.86a7,7,0,0,0-1.62-1c-5.7-1.28-11.37-3.27-17.14-3.62-18.1-1.1-33.55,5.23-46.33,18.11a4.38,4.38,0,0,1-2.46,1.44c-4.37.14-8.75.07-13.51.07C220.88,519.38,266.42,515.21,291.32,531.44Zm-54.46,21.24a3.82,3.82,0,0,0,3.94,4.09,4,4,0,0,0-.06-8A3.9,3.9,0,0,0,236.86,552.68Z" transform="translate(-146.69 -522.29)"/><path class="cls-1" d="M198.5,641.77c4.76,0,9.14-.07,13.51.07a4.38,4.38,0,0,1,2.46,1.44c12.78,12.88,28.23,19.21,46.33,18.11,5.77-.35,11.44-2.34,17.14-3.62a7,7,0,0,0,1.62-1c-4-4.07-7.91-8-11.87-11.86a3.62,3.62,0,0,0-2.29-.59c-5-.05-9.94,0-14.91-.06a3.23,3.23,0,0,0-3.33,1.87,7,7,0,0,1-8,3.6,6.88,6.88,0,0,1-5.35-5,7.33,7.33,0,0,1,3.89-8.73,6.83,6.83,0,0,1,8.93,2.5c1.32,2.27,2.92,2.69,5.25,2.63,4.88-.13,9.77-.11,14.65,0a4.9,4.9,0,0,1,3.11,1.07c7.16,7,14.22,14.09,21.3,21.17a3.21,3.21,0,0,1,.4.61C266.42,680.27,220.88,676.1,198.5,641.77Zm42.24,5a4,4,0,0,0,.06-8,3.81,3.81,0,0,0-3.94,4.09A3.9,3.9,0,0,0,240.74,646.73Z" transform="translate(-146.69 -522.29)"/></svg>